<svg xmlns="http://www.w3.org/2000/svg" width="800" height="420" viewBox="0 0 800 420">
  <defs>
    <style>
      .bg { fill: #f8f9fa; rx: 10px; }
      .bar-default { fill: #4682B4; rx: 3px; }
      .text-val { font-family: sans-serif; font-size: 14px; fill: #333; text-anchor: middle; font-weight: bold; }
      .text-label { font-family: sans-serif; font-size: 16px; fill: #333; text-anchor: middle; font-weight: bold; }
      .axis { stroke: #333; stroke-width: 2; }
      .title { font-family: sans-serif; font-size: 24px; fill: #333; text-anchor: middle; font-weight: bold; }
      .bracket-line { stroke-width: 2; fill: none; }
      .bracket-text { font-family: sans-serif; font-size: 16px; text-anchor: middle; font-weight: bold; }
    </style>
  </defs>
  <rect width="100%" height="100%" class="bg" />
  <text x="400.0" y="40" class="title">2d10 Probability Distribution</text>
  <line x1="60" y1="340" x2="740" y2="340" class="axis" />
  <rect x="65.0" y="316.0" width="25.789473684210527" height="24.0" class="bar-default" />
  <text x="77.89473684210526" y="306.0" class="text-val">1%</text>
  <text x="77.89473684210526" y="365" class="text-label">2</text>
  <rect x="100.78947368421052" y="292.0" width="25.789473684210527" height="48.0" class="bar-default" />
  <text x="113.68421052631578" y="282.0" class="text-val">2%</text>
  <text x="113.68421052631578" y="365" class="text-label">3</text>
  <rect x="136.57894736842104" y="268.0" width="25.789473684210527" height="72.0" class="bar-default" />
  <text x="149.4736842105263" y="258.0" class="text-val">3%</text>
  <text x="149.4736842105263" y="365" class="text-label">4</text>
  <rect x="172.3684210526316" y="244.0" width="25.789473684210527" height="96.0" class="bar-default" />
  <text x="185.26315789473685" y="234.0" class="text-val">4%</text>
  <text x="185.26315789473685" y="365" class="text-label">5</text>
  <rect x="208.1578947368421" y="220.0" width="25.789473684210527" height="120.0" class="bar-default" />
  <text x="221.05263157894737" y="210.0" class="text-val">5%</text>
  <text x="221.05263157894737" y="365" class="text-label">6</text>
  <rect x="243.94736842105263" y="196.0" width="25.789473684210527" height="144.0" class="bar-default" />
  <text x="256.8421052631579" y="186.0" class="text-val">6%</text>
  <text x="256.8421052631579" y="365" class="text-label">7</text>
  <rect x="279.7368421052632" y="172.0" width="25.789473684210527" height="168.0" class="bar-default" />
  <text x="292.63157894736844" y="162.0" class="text-val">7%</text>
  <text x="292.63157894736844" y="365" class="text-label">8</text>
  <rect x="315.5263157894737" y="148.0" width="25.789473684210527" height="192.0" class="bar-default" />
  <text x="328.42105263157896" y="138.0" class="text-val">8%</text>
  <text x="328.42105263157896" y="365" class="text-label">9</text>
  <rect x="351.3157894736842" y="124.0" width="25.789473684210527" height="216.0" class="bar-default" />
  <text x="364.2105263157895" y="114.0" class="text-val">9%</text>
  <text x="364.2105263157895" y="365" class="text-label">10</text>
  <rect x="387.10526315789474" y="100.0" width="25.789473684210527" height="240.0" class="bar-default" />
  <text x="400.0" y="90.0" class="text-val">10%</text>
  <text x="400.0" y="365" class="text-label">11</text>
  <rect x="422.89473684210526" y="124.0" width="25.789473684210527" height="216.0" class="bar-default" />
  <text x="435.7894736842105" y="114.0" class="text-val">9%</text>
  <text x="435.7894736842105" y="365" class="text-label">12</text>
  <rect x="458.6842105263158" y="148.0" width="25.789473684210527" height="192.0" class="bar-default" />
  <text x="471.57894736842104" y="138.0" class="text-val">8%</text>
  <text x="471.57894736842104" y="365" class="text-label">13</text>
  <rect x="494.47368421052636" y="172.0" width="25.789473684210527" height="168.0" class="bar-default" />
  <text x="507.3684210526316" y="162.0" class="text-val">7%</text>
  <text x="507.3684210526316" y="365" class="text-label">14</text>
  <rect x="530.2631578947369" y="196.0" width="25.789473684210527" height="144.0" class="bar-default" />
  <text x="543.1578947368422" y="186.0" class="text-val">6%</text>
  <text x="543.1578947368422" y="365" class="text-label">15</text>
  <rect x="566.0526315789474" y="220.0" width="25.789473684210527" height="120.0" class="bar-default" />
  <text x="578.9473684210527" y="210.0" class="text-val">5%</text>
  <text x="578.9473684210527" y="365" class="text-label">16</text>
  <rect x="601.8421052631579" y="244.0" width="25.789473684210527" height="96.0" class="bar-default" />
  <text x="614.7368421052632" y="234.0" class="text-val">4%</text>
  <text x="614.7368421052632" y="365" class="text-label">17</text>
  <rect x="637.6315789473684" y="268.0" width="25.789473684210527" height="72.0" class="bar-default" />
  <text x="650.5263157894738" y="258.0" class="text-val">3%</text>
  <text x="650.5263157894738" y="365" class="text-label">18</text>
  <rect x="673.421052631579" y="292.0" width="25.789473684210527" height="48.0" class="bar-default" />
  <text x="686.3157894736843" y="282.0" class="text-val">2%</text>
  <text x="686.3157894736843" y="365" class="text-label">19</text>
  <rect x="709.2105263157895" y="316.0" width="25.789473684210527" height="24.0" class="bar-default" />
  <text x="722.1052631578948" y="306.0" class="text-val">1%</text>
  <text x="722.1052631578948" y="365" class="text-label">20</text>
</svg>